<?xml version="1.0" standalone="no"?>
<!DOCTYPE svg PUBLIC "-//W3C//DTD SVG 20010904//EN"
 "http://www.w3.org/TR/2001/REC-SVG-20010904/DTD/svg10.dtd">
<svg version="1.0" xmlns="http://www.w3.org/2000/svg"
 width="368.000000pt" height="368.000000pt" viewBox="0 0 368.000000 368.000000"
 preserveAspectRatio="xMidYMid meet">
<metadata>
Created by potrace 1.14, written by Peter Selinger 2001-2017
</metadata>
<g transform="translate(0.000000,368.000000) scale(0.100000,-0.100000)"
fill="#000000" stroke="none">
<path d="M1797 3323 c-4 -3 -19 -6 -34 -7 -23 -1 -29 -7 -40 -46 -7 -25 -11
-50 -9 -57 3 -6 1 -13 -5 -15 -5 -2 -11 -12 -13 -23 -9 -44 -26 -74 -45 -80
-12 -3 -21 -11 -21 -16 0 -6 -4 -8 -9 -4 -5 3 -13 -5 -17 -17 -3 -12 -13 -28
-20 -36 -16 -16 -20 -152 -4 -152 6 0 10 -5 10 -12 0 -7 12 -24 26 -39 l26
-27 -54 -7 c-29 -4 -64 -12 -78 -18 -14 -5 -31 -11 -39 -13 -8 -1 -48 -19 -89
-39 -82 -41 -202 -146 -222 -195 -7 -17 -17 -30 -23 -30 -6 0 -8 -3 -5 -6 4
-3 0 -22 -8 -41 -9 -19 -13 -38 -10 -40 3 -3 0 -15 -6 -27 -7 -11 -11 -24 -10
-28 1 -5 -3 -8 -8 -8 -20 0 -26 -5 -96 -75 -76 -75 -120 -149 -149 -250 -26
-87 -17 -248 18 -333 l25 -64 -54 4 c-30 1 -54 -1 -54 -5 0 -4 -9 -3 -19 3
-12 6 -22 6 -25 1 -3 -5 -21 -5 -41 -1 -21 5 -35 4 -35 -1 0 -6 -8 -5 -19 1
-12 6 -22 6 -25 1 -3 -5 -21 -5 -41 -1 -21 5 -35 4 -35 -1 0 -6 -8 -6 -19 0
-10 6 -21 8 -24 5 -3 -3 -34 -8 -68 -10 -80 -6 -218 -52 -202 -67 3 -4 1 -7
-5 -7 -9 0 -12 -36 -12 -124 0 -109 2 -124 17 -129 10 -3 29 -12 43 -20 39
-23 93 -37 138 -37 23 0 42 -3 42 -7 0 -5 38 -8 85 -8 47 0 85 4 85 9 0 6 5 5
11 -1 7 -7 21 -8 38 -3 18 5 33 3 46 -6 10 -8 13 -14 6 -14 -7 0 -9 -5 -5 -12
4 -7 11 -30 15 -53 14 -75 20 -100 30 -109 5 -6 9 -18 9 -28 0 -10 5 -18 10
-18 6 0 10 -5 10 -10 0 -16 51 -91 95 -138 41 -45 176 -151 181 -142 1 3 13
-5 26 -17 13 -12 28 -23 33 -24 17 -3 45 -23 45 -32 0 -4 -12 -18 -26 -31 -25
-20 -27 -30 -31 -114 -4 -70 -1 -100 10 -125 16 -33 61 -78 87 -86 32 -11
1025 -12 1060 -2 69 20 123 103 109 169 -3 17 -2 32 3 32 5 0 4 9 -2 20 -7 13
-7 20 -1 20 17 0 -10 63 -41 96 l-29 31 33 14 c64 26 204 128 266 193 34 36
62 70 62 75 0 5 6 16 14 23 15 16 46 72 52 96 10 42 36 159 40 180 4 19 8 21
24 12 14 -8 20 -8 20 0 0 7 6 8 19 0 11 -5 22 -7 24 -2 3 4 39 5 81 2 42 -3
76 -1 76 3 0 4 9 3 20 -3 11 -6 20 -7 20 -3 0 4 42 9 93 9 112 2 197 24 249
66 l38 30 0 91 c0 75 -4 98 -20 122 -11 17 -20 26 -20 21 0 -5 -8 -2 -17 6
-17 15 -37 23 -80 33 -10 2 -35 9 -55 14 -20 5 -39 6 -42 3 -4 -3 -6 0 -6 7 0
8 -5 9 -18 2 -13 -7 -22 -7 -29 0 -7 7 -13 7 -17 1 -3 -6 -20 -7 -41 -2 -21 5
-35 4 -35 -1 0 -6 -8 -5 -19 1 -12 6 -22 6 -25 1 -3 -5 -21 -5 -41 -1 -21 5
-35 4 -35 -1 0 -6 -8 -6 -19 0 -10 6 -21 7 -25 4 -6 -6 -138 -5 -144 2 -2 2 4
17 13 34 8 17 14 31 11 31 -2 0 2 20 10 45 7 25 10 45 7 45 -3 0 0 6 6 14 8
10 9 16 1 21 -6 4 -7 12 -1 24 6 10 6 23 1 31 -5 8 -6 19 -3 24 10 15 10 56 0
56 -4 0 -6 4 -3 9 3 4 -2 35 -10 67 -9 33 -16 65 -17 72 0 6 -4 12 -8 12 -5 0
-16 22 -23 50 0 3 -19 30 -40 60 -22 30 -40 57 -40 60 -2 9 -74 70 -84 70 -6
0 -12 4 -14 8 -3 7 -67 55 -78 58 -34 9 -50 18 -50 27 0 6 -3 8 -6 4 -12 -12
-62 15 -73 41 -17 38 -74 121 -83 122 -5 0 -16 8 -26 18 -32 30 -77 66 -80 64
-1 -1 -28 11 -60 27 -32 16 -85 37 -118 47 -73 22 -69 21 -100 23 -26 1 -26 2
-10 24 9 12 23 32 32 44 19 26 29 133 13 133 -5 0 -8 4 -5 8 7 11 -31 72 -44
72 -6 0 -9 4 -5 9 3 6 -17 18 -44 28 -56 20 -57 24 -26 118 23 70 26 93 16 99
-4 3 -11 3 -14 -1z"/>
</g>
</svg>
